<svg width="170" height="46" viewBox="0 0 170 46" fill="none" xmlns="http://www.w3.org/2000/svg">
<path d="M21.355 2.41V8.575H8.485V15.235H18.115V21.22H8.485V34H0.79V2.41H21.355ZM33.0944 13.075C33.9944 11.695 35.1194 10.615 36.4694 9.835C37.8194 9.025 39.3194 8.62 40.9694 8.62V16.765H38.8544C36.9344 16.765 35.4944 17.185 34.5344 18.025C33.5744 18.835 33.0944 20.275 33.0944 22.345V34H25.3994V8.89H33.0944V13.075ZM68.3174 21.04C68.3174 21.76 68.2724 22.51 68.1824 23.29H50.7674C50.8874 24.85 51.3824 26.05 52.2524 26.89C53.1524 27.7 54.2474 28.105 55.5374 28.105C57.4574 28.105 58.7924 27.295 59.5424 25.675H67.7324C67.3124 27.325 66.5474 28.81 65.4374 30.13C64.3574 31.45 62.9924 32.485 61.3424 33.235C59.6924 33.985 57.8474 34.36 55.8074 34.36C53.3474 34.36 51.1574 33.835 49.2374 32.785C47.3174 31.735 45.8174 30.235 44.7374 28.285C43.6574 26.335 43.1174 24.055 43.1174 21.445C43.1174 18.835 43.6424 16.555 44.6924 14.605C45.7724 12.655 47.2724 11.155 49.1924 10.105C51.1124 9.055 53.3174 8.53 55.8074 8.53C58.2374 8.53 60.3974 9.04 62.2874 10.06C64.1774 11.08 65.6474 12.535 66.6974 14.425C67.7774 16.315 68.3174 18.52 68.3174 21.04ZM60.4424 19.015C60.4424 17.695 59.9924 16.645 59.0924 15.865C58.1924 15.085 57.0674 14.695 55.7174 14.695C54.4274 14.695 53.3324 15.07 52.4324 15.82C51.5624 16.57 51.0224 17.635 50.8124 19.015H60.4424ZM96.4519 12.58C96.4519 14.41 96.0319 16.09 95.1919 17.62C94.3519 19.12 93.0619 20.335 91.3219 21.265C89.5819 22.195 87.4219 22.66 84.8419 22.66H80.0719V34H72.3769V2.41H84.8419C87.3619 2.41 89.4919 2.845 91.2319 3.715C92.9719 4.585 94.2769 5.785 95.1469 7.315C96.0169 8.845 96.4519 10.6 96.4519 12.58ZM84.2569 16.54C85.7269 16.54 86.8219 16.195 87.5419 15.505C88.2619 14.815 88.6219 13.84 88.6219 12.58C88.6219 11.32 88.2619 10.345 87.5419 9.655C86.8219 8.965 85.7269 8.62 84.2569 8.62H80.0719V16.54H84.2569ZM169.921 8.89L154.171 45.925H145.891L151.651 33.145L141.436 8.89H150.031L155.836 24.595L161.596 8.89H169.921Z" fill="black"/>
<path d="M108.153 0.7V34H100.458V0.7H108.153ZM112.199 21.4C112.199 18.82 112.679 16.555 113.639 14.605C114.629 12.655 115.964 11.155 117.644 10.105C119.324 9.055 121.199 8.53 123.269 8.53C125.039 8.53 126.584 8.89 127.904 9.61C129.254 10.33 130.289 11.275 131.009 12.445V8.89H138.704V34H131.009V30.445C130.259 31.615 129.209 32.56 127.859 33.28C126.539 34 124.994 34.36 123.224 34.36C121.184 34.36 119.324 33.835 117.644 32.785C115.964 31.705 114.629 30.19 113.639 28.24C112.679 26.26 112.199 23.98 112.199 21.4ZM131.009 21.445C131.009 19.525 130.469 18.01 129.389 16.9C128.339 15.79 127.049 15.235 125.519 15.235C123.989 15.235 122.684 15.79 121.604 16.9C120.554 17.98 120.029 19.48 120.029 21.4C120.029 23.32 120.554 24.85 121.604 25.99C122.684 27.1 123.989 27.655 125.519 27.655C127.049 27.655 128.339 27.1 129.389 25.99C130.469 24.88 131.009 23.365 131.009 21.445Z" fill="#2A9D8F"/>
<path d="M21.355 2.41H22.355V1.41H21.355V2.41ZM21.355 8.575V9.575H22.355V8.575H21.355ZM8.485 8.575V7.575H7.485V8.575H8.485ZM8.485 15.235H7.485V16.235H8.485V15.235ZM18.115 15.235H19.115V14.235H18.115V15.235ZM18.115 21.22V22.22H19.115V21.22H18.115ZM8.485 21.22V20.22H7.485V21.22H8.485ZM8.485 34V35H9.485V34H8.485ZM0.79 34H-0.21V35H0.79V34ZM0.79 2.41V1.41H-0.21V2.41H0.79ZM20.355 2.41V8.575H22.355V2.41H20.355ZM21.355 7.575H8.485V9.575H21.355V7.575ZM7.485 8.575V15.235H9.485V8.575H7.485ZM8.485 16.235H18.115V14.235H8.485V16.235ZM17.115 15.235V21.22H19.115V15.235H17.115ZM18.115 20.22H8.485V22.22H18.115V20.22ZM7.485 21.22V34H9.485V21.22H7.485ZM8.485 33H0.79V35H8.485V33ZM1.79 34V2.41H-0.21V34H1.79ZM0.79 3.41H21.355V1.41H0.79V3.41ZM33.0944 13.075H32.0944V16.4389L33.932 13.6213L33.0944 13.075ZM36.4694 9.835L36.9697 10.7009L36.9768 10.6967L36.9839 10.6925L36.4694 9.835ZM40.9694 8.62H41.9694V7.62H40.9694V8.62ZM40.9694 16.765V17.765H41.9694V16.765H40.9694ZM34.5344 18.025L35.1792 18.7893L35.1861 18.7835L35.1929 18.7776L34.5344 18.025ZM33.0944 34V35H34.0944V34H33.0944ZM25.3994 34H24.3994V35H25.3994V34ZM25.3994 8.89V7.89H24.3994V8.89H25.3994ZM33.0944 8.89H34.0944V7.89H33.0944V8.89ZM33.932 13.6213C34.7512 12.3651 35.7633 11.3978 36.9697 10.7009L35.9691 8.96914C34.4754 9.83215 33.2376 11.0249 32.2568 12.5287L33.932 13.6213ZM36.9839 10.6925C38.1708 9.98031 39.4915 9.62 40.9694 9.62V7.62C39.1472 7.62 37.4679 8.06969 35.9549 8.97751L36.9839 10.6925ZM39.9694 8.62V16.765H41.9694V8.62H39.9694ZM40.9694 15.765H38.8544V17.765H40.9694V15.765ZM38.8544 15.765C36.8106 15.765 35.091 16.2092 33.8759 17.2724L35.1929 18.7776C35.8978 18.1608 37.0582 17.765 38.8544 17.765V15.765ZM33.8895 17.2607C32.5928 18.3548 32.0944 20.1667 32.0944 22.345H34.0944C34.0944 20.3833 34.5559 19.3152 35.1792 18.7893L33.8895 17.2607ZM32.0944 22.345V34H34.0944V22.345H32.0944ZM33.0944 33H25.3994V35H33.0944V33ZM26.3994 34V8.89H24.3994V34H26.3994ZM25.3994 9.89H33.0944V7.89H25.3994V9.89ZM32.0944 8.89V13.075H34.0944V8.89H32.0944ZM68.1824 23.29V24.29H69.0737L69.1758 23.4046L68.1824 23.29ZM50.7674 23.29V22.29H49.6875L49.7704 23.3667L50.7674 23.29ZM52.2524 26.89L51.5578 27.6094L51.5704 27.6216L51.5835 27.6333L52.2524 26.89ZM59.5424 25.675V24.675H58.9034L58.635 25.2549L59.5424 25.675ZM67.7324 25.675L68.7015 25.9217L69.0189 24.675H67.7324V25.675ZM65.4374 30.13L64.672 29.4863L64.6635 29.4968L65.4374 30.13ZM61.3424 33.235L61.7562 34.1454L61.3424 33.235ZM49.2374 32.785L48.7576 33.6624L49.2374 32.785ZM44.7374 28.285L45.6122 27.8005L44.7374 28.285ZM44.6924 14.605L43.8176 14.1205L43.812 14.1309L44.6924 14.605ZM49.1924 10.105L49.6722 10.9824L49.1924 10.105ZM62.2874 10.06L61.8125 10.94H61.8125L62.2874 10.06ZM66.6974 14.425L65.8232 14.9107L65.8292 14.9211L66.6974 14.425ZM60.4424 19.015V20.015H61.4424V19.015H60.4424ZM59.0924 15.865L59.7474 15.1093L59.0924 15.865ZM52.4324 15.82L51.7922 15.0518L51.7858 15.0571L51.7795 15.0626L52.4324 15.82ZM50.8124 19.015L49.8238 18.8646L49.6487 20.015H50.8124V19.015ZM67.3174 21.04C67.3174 21.7184 67.275 22.4301 67.189 23.1754L69.1758 23.4046C69.2698 22.5899 69.3174 21.8016 69.3174 21.04H67.3174ZM68.1824 22.29H50.7674V24.29H68.1824V22.29ZM49.7704 23.3667C49.9035 25.0972 50.4651 26.5543 51.5578 27.6094L52.947 26.1706C52.2998 25.5457 51.8714 24.6028 51.7645 23.2133L49.7704 23.3667ZM51.5835 27.6333C52.6798 28.62 54.018 29.105 55.5374 29.105V27.105C54.4768 27.105 53.6251 26.78 52.9214 26.1467L51.5835 27.6333ZM55.5374 29.105C56.6384 29.105 57.6412 28.8719 58.4974 28.3524C59.3583 27.8301 60.0037 27.0588 60.4499 26.0951L58.635 25.2549C58.3311 25.9112 57.9341 26.3549 57.4599 26.6426C56.9811 26.9331 56.3564 27.105 55.5374 27.105V29.105ZM59.5424 26.675H67.7324V24.675H59.5424V26.675ZM66.7633 25.4283C66.381 26.9304 65.6864 28.2801 64.6721 29.4864L66.2028 30.7736C67.4084 29.3399 68.2439 27.7196 68.7015 25.9217L66.7633 25.4283ZM64.6635 29.4968C63.6867 30.6906 62.4479 31.6341 60.9286 32.3246L61.7562 34.1454C63.537 33.3359 65.0281 32.2094 66.2114 30.7632L64.6635 29.4968ZM60.9286 32.3246C59.424 33.0086 57.7226 33.36 55.8074 33.36V35.36C57.9722 35.36 59.9608 34.9614 61.7562 34.1454L60.9286 32.3246ZM55.8074 33.36C53.494 33.36 51.4726 32.8676 49.7172 31.9076L48.7576 33.6624C50.8422 34.8024 53.2009 35.36 55.8074 35.36V33.36ZM49.7172 31.9076C47.9667 30.9503 46.6022 29.588 45.6122 27.8005L43.8626 28.7695C45.0326 30.882 46.6682 32.5197 48.7576 33.6624L49.7172 31.9076ZM45.6122 27.8005C44.6274 26.0223 44.1174 23.9146 44.1174 21.445H42.1174C42.1174 24.1954 42.6875 26.6477 43.8626 28.7695L45.6122 27.8005ZM44.1174 21.445C44.1174 18.9709 44.6143 16.8594 45.5729 15.0791L43.812 14.1309C42.6706 16.2506 42.1174 18.6991 42.1174 21.445H44.1174ZM45.5672 15.0895C46.5572 13.302 47.9217 11.9397 49.6722 10.9824L48.7126 9.22763C46.6231 10.3703 44.9876 12.008 43.8176 14.1205L45.5672 15.0895ZM49.6722 10.9824C51.4259 10.0234 53.4617 9.53 55.8074 9.53V7.53C53.1731 7.53 50.799 8.08664 48.7126 9.22763L49.6722 10.9824ZM55.8074 9.53C58.0937 9.53 60.0867 10.0086 61.8125 10.94L62.7624 9.17998C60.7082 8.07137 58.3811 7.53 55.8074 7.53V9.53ZM61.8125 10.94C63.5333 11.8687 64.8653 13.1863 65.8233 14.9106L67.5716 13.9394C66.4295 11.8837 64.8215 10.2913 62.7624 9.17998L61.8125 10.94ZM65.8292 14.9211C66.81 16.6376 67.3174 18.6663 67.3174 21.04H69.3174C69.3174 18.3737 68.7448 15.9923 67.5657 13.9289L65.8292 14.9211ZM61.4424 19.015C61.4424 17.4403 60.8918 16.1012 59.7474 15.1093L58.4375 16.6207C59.093 17.1888 59.4424 17.9497 59.4424 19.015H61.4424ZM59.7474 15.1093C58.6412 14.1507 57.2738 13.695 55.7174 13.695V15.695C56.8611 15.695 57.7436 16.0193 58.4375 16.6207L59.7474 15.1093ZM55.7174 13.695C54.2188 13.695 52.8905 14.1366 51.7922 15.0518L53.0726 16.5882C53.7744 16.0034 54.6361 15.695 55.7174 15.695V13.695ZM51.7795 15.0626C50.692 16.0001 50.0616 17.3016 49.8238 18.8646L51.801 19.1654C51.9832 17.9684 52.4329 17.1399 53.0854 16.5774L51.7795 15.0626ZM50.8124 20.015H60.4424V18.015H50.8124V20.015ZM95.1919 17.62L96.0645 18.1086L96.0685 18.1013L95.1919 17.62ZM91.3219 21.265L90.8505 20.3831L91.3219 21.265ZM80.0719 22.66V21.66H79.0719V22.66H80.0719ZM80.0719 34V35H81.0719V34H80.0719ZM72.3769 34H71.3769V35H72.3769V34ZM72.3769 2.41V1.41H71.3769V2.41H72.3769ZM91.2319 3.715L91.6791 2.82057V2.82057L91.2319 3.715ZM80.0719 8.62V7.62H79.0719V8.62H80.0719ZM80.0719 16.54H79.0719V17.54H80.0719V16.54ZM95.4519 12.58C95.4519 14.2502 95.0704 15.7635 94.3153 17.1387L96.0685 18.1013C96.9934 16.4165 97.4519 14.5698 97.4519 12.58H95.4519ZM94.3194 17.1314C93.586 18.4411 92.4475 19.5295 90.8505 20.3831L91.7933 22.1469C93.6764 21.1405 95.1179 19.7989 96.0644 18.1086L94.3194 17.1314ZM90.8505 20.3831C89.2933 21.2154 87.3064 21.66 84.8419 21.66V23.66C87.5374 23.66 89.8705 23.1746 91.7933 22.1469L90.8505 20.3831ZM84.8419 21.66H80.0719V23.66H84.8419V21.66ZM79.0719 22.66V34H81.0719V22.66H79.0719ZM80.0719 33H72.3769V35H80.0719V33ZM73.3769 34V2.41H71.3769V34H73.3769ZM72.3769 3.41H84.8419V1.41H72.3769V3.41ZM84.8419 3.41C87.2509 3.41 89.2184 3.82626 90.7847 4.60943L91.6791 2.82057C89.7655 1.86374 87.4729 1.41 84.8419 1.41V3.41ZM90.7847 4.60943C92.3669 5.40052 93.5158 6.4695 94.2776 7.8093L96.0162 6.8207C95.0381 5.1005 93.5769 3.76947 91.6791 2.82057L90.7847 4.60943ZM94.2776 7.8093C95.0517 9.17055 95.4519 10.7512 95.4519 12.58H97.4519C97.4519 10.4488 96.9822 8.51945 96.0162 6.8207L94.2776 7.8093ZM84.2569 17.54C85.8639 17.54 87.2556 17.1644 88.2338 16.227L86.85 14.783C86.3882 15.2256 85.5899 15.54 84.2569 15.54V17.54ZM88.2338 16.227C89.1995 15.3015 89.6219 14.0365 89.6219 12.58H87.6219C87.6219 13.6435 87.3243 14.3285 86.85 14.783L88.2338 16.227ZM89.6219 12.58C89.6219 11.1235 89.1995 9.85849 88.2338 8.93301L86.85 10.377C87.3243 10.8315 87.6219 11.5165 87.6219 12.58H89.6219ZM88.2338 8.93301C87.2556 7.99558 85.8639 7.62 84.2569 7.62V9.62C85.5899 9.62 86.3882 9.93442 86.85 10.377L88.2338 8.93301ZM84.2569 7.62H80.0719V9.62H84.2569V7.62ZM79.0719 8.62V16.54H81.0719V8.62H79.0719ZM80.0719 17.54H84.2569V15.54H80.0719V17.54ZM108.153 0.699999H109.153V-0.3H108.153V0.699999ZM108.153 34V35H109.153V34H108.153ZM100.458 34H99.458V35H100.458V34ZM100.458 0.699999V-0.3H99.458V0.699999H100.458ZM107.153 0.699999V34H109.153V0.699999H107.153ZM108.153 33H100.458V35H108.153V33ZM101.458 34V0.699999H99.458V34H101.458ZM100.458 1.7H108.153V-0.3H100.458V1.7ZM113.639 14.605L112.748 14.1523L112.742 14.1633L113.639 14.605ZM117.644 10.105L118.174 10.953L117.644 10.105ZM127.904 9.61L127.426 10.4879L127.434 10.4923L127.904 9.61ZM131.009 12.445L130.158 12.9691L132.009 15.978V12.445H131.009ZM131.009 8.89V7.89H130.009V8.89H131.009ZM138.704 8.89H139.704V7.89H138.704V8.89ZM138.704 34V35H139.704V34H138.704ZM131.009 34H130.009V35H131.009V34ZM131.009 30.445H132.009V27.032L130.168 29.9053L131.009 30.445ZM127.859 33.28L127.389 32.3976L127.381 32.4021L127.859 33.28ZM117.644 32.785L117.104 33.6262L117.114 33.633L117.644 32.785ZM113.639 28.24L112.74 28.6763L112.744 28.6845L112.748 28.6927L113.639 28.24ZM129.389 16.9L128.663 17.5873L128.673 17.5974L129.389 16.9ZM121.604 16.9L120.888 16.2026L120.887 16.2029L121.604 16.9ZM121.604 25.99L120.869 26.6675L120.878 26.6775L120.888 26.6874L121.604 25.99ZM129.389 25.99L128.673 25.2926L128.663 25.3028L129.389 25.99ZM113.199 21.4C113.199 18.9447 113.656 16.8359 114.537 15.0467L112.742 14.1633C111.703 16.2741 111.199 18.6953 111.199 21.4H113.199ZM114.531 15.0577C115.448 13.2525 116.664 11.8968 118.174 10.953L117.114 9.257C115.264 10.4132 113.811 12.0574 112.748 14.1523L114.531 15.0577ZM118.174 10.953C119.688 10.0069 121.378 9.53 123.269 9.53V7.53C121.021 7.53 118.961 8.10309 117.114 9.257L118.174 10.953ZM123.269 9.53C124.902 9.53 126.277 9.86113 127.426 10.4879L128.383 8.7321C126.892 7.91887 125.177 7.53 123.269 7.53V9.53ZM127.434 10.4923C128.646 11.1386 129.541 11.9669 130.158 12.9691L131.861 11.9209C131.038 10.5831 129.863 9.52141 128.375 8.72764L127.434 10.4923ZM132.009 12.445V8.89H130.009V12.445H132.009ZM131.009 9.89H138.704V7.89H131.009V9.89ZM137.704 8.89V34H139.704V8.89H137.704ZM138.704 33H131.009V35H138.704V33ZM132.009 34V30.445H130.009V34H132.009ZM130.168 29.9053C129.519 30.917 128.603 31.7499 127.389 32.3976L128.33 34.1624C129.815 33.3701 131 32.313 131.851 30.9847L130.168 29.9053ZM127.381 32.4021C126.232 33.0289 124.857 33.36 123.224 33.36V35.36C125.132 35.36 126.847 34.9711 128.338 34.1579L127.381 32.4021ZM123.224 33.36C121.366 33.36 119.691 32.8846 118.174 31.937L117.114 33.633C118.958 34.7854 121.003 35.36 123.224 35.36V33.36ZM118.185 31.9438C116.669 30.9688 115.449 29.5944 114.531 27.7873L112.748 28.6927C113.81 30.7856 115.26 32.4412 117.104 33.6262L118.185 31.9438ZM114.539 27.8037C113.656 25.9813 113.199 23.8548 113.199 21.4H111.199C111.199 24.1052 111.703 26.5387 112.74 28.6763L114.539 27.8037ZM132.009 21.445C132.009 19.3304 131.409 17.5417 130.106 16.2026L128.673 17.5974C129.53 18.4783 130.009 19.7196 130.009 21.445H132.009ZM130.116 16.2128C128.877 14.9028 127.324 14.235 125.519 14.235V16.235C126.775 16.235 127.802 16.6772 128.663 17.5872L130.116 16.2128ZM125.519 14.235C123.716 14.235 122.153 14.9018 120.888 16.2026L122.321 17.5974C123.216 16.6782 124.263 16.235 125.519 16.235V14.235ZM120.887 16.2029C119.61 17.5171 119.029 19.2944 119.029 21.4H121.029C121.029 19.6656 121.499 18.4429 122.321 17.5971L120.887 16.2029ZM119.029 21.4C119.029 23.5083 119.611 25.3014 120.869 26.6675L122.34 25.3125C121.498 24.3986 121.029 23.1317 121.029 21.4H119.029ZM120.888 26.6874C122.153 27.9882 123.716 28.655 125.519 28.655V26.655C124.263 26.655 123.216 26.2118 122.321 25.2926L120.888 26.6874ZM125.519 28.655C127.324 28.655 128.877 27.9872 130.116 26.6772L128.663 25.3028C127.802 26.2128 126.775 26.655 125.519 26.655V28.655ZM130.106 26.6874C131.409 25.3483 132.009 23.5596 132.009 21.445H130.009C130.009 23.1704 129.53 24.4117 128.673 25.2926L130.106 26.6874ZM169.921 8.89L170.842 9.28135L171.433 7.89H169.921V8.89ZM154.171 45.925V46.925H154.833L155.092 46.3164L154.171 45.925ZM145.891 45.925L144.98 45.5141L144.344 46.925H145.891V45.925ZM151.651 33.145L152.563 33.5559L152.742 33.1585L152.573 32.7569L151.651 33.145ZM141.436 8.89V7.89H139.93L140.515 9.27813L141.436 8.89ZM150.031 8.89L150.969 8.5433L150.728 7.89H150.031V8.89ZM155.836 24.595L154.898 24.9417L155.84 27.4892L156.775 24.9393L155.836 24.595ZM161.596 8.89V7.89H160.898L160.658 8.54567L161.596 8.89ZM169.001 8.49865L153.251 45.5336L155.092 46.3164L170.842 9.28135L169.001 8.49865ZM154.171 44.925H145.891V46.925H154.171V44.925ZM146.803 46.3359L152.563 33.5559L150.74 32.7341L144.98 45.5141L146.803 46.3359ZM152.573 32.7569L142.358 8.50187L140.515 9.27813L150.73 33.5331L152.573 32.7569ZM141.436 9.89H150.031V7.89H141.436V9.89ZM149.093 9.2367L154.898 24.9417L156.774 24.2483L150.969 8.5433L149.093 9.2367ZM156.775 24.9393L162.535 9.23433L160.658 8.54567L154.898 24.2507L156.775 24.9393ZM161.596 9.89H169.921V7.89H161.596V9.89Z" fill="white"/>
<path d="M21.355 2.41H22.355V1.41H21.355V2.41ZM21.355 8.575V9.575H22.355V8.575H21.355ZM8.485 8.575V7.575H7.485V8.575H8.485ZM8.485 15.235H7.485V16.235H8.485V15.235ZM18.115 15.235H19.115V14.235H18.115V15.235ZM18.115 21.22V22.22H19.115V21.22H18.115ZM8.485 21.22V20.22H7.485V21.22H8.485ZM8.485 34V35H9.485V34H8.485ZM0.79 34H-0.21V35H0.79V34ZM0.79 2.41V1.41H-0.21V2.41H0.79ZM20.355 2.41V8.575H22.355V2.41H20.355ZM21.355 7.575H8.485V9.575H21.355V7.575ZM7.485 8.575V15.235H9.485V8.575H7.485ZM8.485 16.235H18.115V14.235H8.485V16.235ZM17.115 15.235V21.22H19.115V15.235H17.115ZM18.115 20.22H8.485V22.22H18.115V20.22ZM7.485 21.22V34H9.485V21.22H7.485ZM8.485 33H0.79V35H8.485V33ZM1.79 34V2.41H-0.21V34H1.79ZM0.79 3.41H21.355V1.41H0.79V3.41ZM33.0944 13.075H32.0944V16.4389L33.932 13.6213L33.0944 13.075ZM36.4694 9.835L36.9697 10.7009L36.9768 10.6967L36.9839 10.6925L36.4694 9.835ZM40.9694 8.62H41.9694V7.62H40.9694V8.62ZM40.9694 16.765V17.765H41.9694V16.765H40.9694ZM34.5344 18.025L35.1792 18.7893L35.1861 18.7835L35.1929 18.7776L34.5344 18.025ZM33.0944 34V35H34.0944V34H33.0944ZM25.3994 34H24.3994V35H25.3994V34ZM25.3994 8.89V7.89H24.3994V8.89H25.3994ZM33.0944 8.89H34.0944V7.89H33.0944V8.89ZM33.932 13.6213C34.7512 12.3651 35.7633 11.3978 36.9697 10.7009L35.9691 8.96914C34.4754 9.83215 33.2376 11.0249 32.2568 12.5287L33.932 13.6213ZM36.9839 10.6925C38.1708 9.98031 39.4915 9.62 40.9694 9.62V7.62C39.1472 7.62 37.4679 8.06969 35.9549 8.97751L36.9839 10.6925ZM39.9694 8.62V16.765H41.9694V8.62H39.9694ZM40.9694 15.765H38.8544V17.765H40.9694V15.765ZM38.8544 15.765C36.8106 15.765 35.091 16.2092 33.8759 17.2724L35.1929 18.7776C35.8978 18.1608 37.0582 17.765 38.8544 17.765V15.765ZM33.8895 17.2607C32.5928 18.3548 32.0944 20.1667 32.0944 22.345H34.0944C34.0944 20.3833 34.5559 19.3152 35.1792 18.7893L33.8895 17.2607ZM32.0944 22.345V34H34.0944V22.345H32.0944ZM33.0944 33H25.3994V35H33.0944V33ZM26.3994 34V8.89H24.3994V34H26.3994ZM25.3994 9.89H33.0944V7.89H25.3994V9.89ZM32.0944 8.89V13.075H34.0944V8.89H32.0944ZM68.1824 23.29V24.29H69.0737L69.1758 23.4046L68.1824 23.29ZM50.7674 23.29V22.29H49.6875L49.7704 23.3667L50.7674 23.29ZM52.2524 26.89L51.5578 27.6094L51.5704 27.6216L51.5835 27.6333L52.2524 26.89ZM59.5424 25.675V24.675H58.9034L58.635 25.2549L59.5424 25.675ZM67.7324 25.675L68.7015 25.9217L69.0189 24.675H67.7324V25.675ZM65.4374 30.13L64.672 29.4863L64.6635 29.4968L65.4374 30.13ZM61.3424 33.235L61.7562 34.1454L61.3424 33.235ZM49.2374 32.785L48.7576 33.6624L49.2374 32.785ZM44.7374 28.285L45.6122 27.8005L44.7374 28.285ZM44.6924 14.605L43.8176 14.1205L43.812 14.1309L44.6924 14.605ZM49.1924 10.105L49.6722 10.9824L49.1924 10.105ZM62.2874 10.06L61.8125 10.94H61.8125L62.2874 10.06ZM66.6974 14.425L65.8232 14.9107L65.8292 14.9211L66.6974 14.425ZM60.4424 19.015V20.015H61.4424V19.015H60.4424ZM59.0924 15.865L59.7474 15.1093L59.0924 15.865ZM52.4324 15.82L51.7922 15.0518L51.7858 15.0571L51.7795 15.0626L52.4324 15.82ZM50.8124 19.015L49.8238 18.8646L49.6487 20.015H50.8124V19.015ZM67.3174 21.04C67.3174 21.7184 67.275 22.4301 67.189 23.1754L69.1758 23.4046C69.2698 22.5899 69.3174 21.8016 69.3174 21.04H67.3174ZM68.1824 22.29H50.7674V24.29H68.1824V22.29ZM49.7704 23.3667C49.9035 25.0972 50.4651 26.5543 51.5578 27.6094L52.947 26.1706C52.2998 25.5457 51.8714 24.6028 51.7645 23.2133L49.7704 23.3667ZM51.5835 27.6333C52.6798 28.62 54.018 29.105 55.5374 29.105V27.105C54.4768 27.105 53.6251 26.78 52.9214 26.1467L51.5835 27.6333ZM55.5374 29.105C56.6384 29.105 57.6412 28.8719 58.4974 28.3524C59.3583 27.8301 60.0037 27.0588 60.4499 26.0951L58.635 25.2549C58.3311 25.9112 57.9341 26.3549 57.4599 26.6426C56.9811 26.9331 56.3564 27.105 55.5374 27.105V29.105ZM59.5424 26.675H67.7324V24.675H59.5424V26.675ZM66.7633 25.4283C66.381 26.9304 65.6864 28.2801 64.6721 29.4864L66.2028 30.7736C67.4084 29.3399 68.2439 27.7196 68.7015 25.9217L66.7633 25.4283ZM64.6635 29.4968C63.6867 30.6906 62.4479 31.6341 60.9286 32.3246L61.7562 34.1454C63.537 33.3359 65.0281 32.2094 66.2114 30.7632L64.6635 29.4968ZM60.9286 32.3246C59.424 33.0086 57.7226 33.36 55.8074 33.36V35.36C57.9722 35.36 59.9608 34.9614 61.7562 34.1454L60.9286 32.3246ZM55.8074 33.36C53.494 33.36 51.4726 32.8676 49.7172 31.9076L48.7576 33.6624C50.8422 34.8024 53.2009 35.36 55.8074 35.36V33.36ZM49.7172 31.9076C47.9667 30.9503 46.6022 29.588 45.6122 27.8005L43.8626 28.7695C45.0326 30.882 46.6682 32.5197 48.7576 33.6624L49.7172 31.9076ZM45.6122 27.8005C44.6274 26.0223 44.1174 23.9146 44.1174 21.445H42.1174C42.1174 24.1954 42.6875 26.6477 43.8626 28.7695L45.6122 27.8005ZM44.1174 21.445C44.1174 18.9709 44.6143 16.8594 45.5729 15.0791L43.812 14.1309C42.6706 16.2506 42.1174 18.6991 42.1174 21.445H44.1174ZM45.5672 15.0895C46.5572 13.302 47.9217 11.9397 49.6722 10.9824L48.7126 9.22763C46.6231 10.3703 44.9876 12.008 43.8176 14.1205L45.5672 15.0895ZM49.6722 10.9824C51.4259 10.0234 53.4617 9.53 55.8074 9.53V7.53C53.1731 7.53 50.799 8.08664 48.7126 9.22763L49.6722 10.9824ZM55.8074 9.53C58.0937 9.53 60.0867 10.0086 61.8125 10.94L62.7624 9.17998C60.7082 8.07137 58.3811 7.53 55.8074 7.53V9.53ZM61.8125 10.94C63.5333 11.8687 64.8653 13.1863 65.8233 14.9106L67.5716 13.9394C66.4295 11.8837 64.8215 10.2913 62.7624 9.17998L61.8125 10.94ZM65.8292 14.9211C66.81 16.6376 67.3174 18.6663 67.3174 21.04H69.3174C69.3174 18.3737 68.7448 15.9923 67.5657 13.9289L65.8292 14.9211ZM61.4424 19.015C61.4424 17.4403 60.8918 16.1012 59.7474 15.1093L58.4375 16.6207C59.093 17.1888 59.4424 17.9497 59.4424 19.015H61.4424ZM59.7474 15.1093C58.6412 14.1507 57.2738 13.695 55.7174 13.695V15.695C56.8611 15.695 57.7436 16.0193 58.4375 16.6207L59.7474 15.1093ZM55.7174 13.695C54.2188 13.695 52.8905 14.1366 51.7922 15.0518L53.0726 16.5882C53.7744 16.0034 54.6361 15.695 55.7174 15.695V13.695ZM51.7795 15.0626C50.692 16.0001 50.0616 17.3016 49.8238 18.8646L51.801 19.1654C51.9832 17.9684 52.4329 17.1399 53.0854 16.5774L51.7795 15.0626ZM50.8124 20.015H60.4424V18.015H50.8124V20.015ZM95.1919 17.62L96.0645 18.1086L96.0685 18.1013L95.1919 17.62ZM91.3219 21.265L90.8505 20.3831L91.3219 21.265ZM80.0719 22.66V21.66H79.0719V22.66H80.0719ZM80.0719 34V35H81.0719V34H80.0719ZM72.3769 34H71.3769V35H72.3769V34ZM72.3769 2.41V1.41H71.3769V2.41H72.3769ZM91.2319 3.715L91.6791 2.82057V2.82057L91.2319 3.715ZM80.0719 8.62V7.62H79.0719V8.62H80.0719ZM80.0719 16.54H79.0719V17.54H80.0719V16.54ZM95.4519 12.58C95.4519 14.2502 95.0704 15.7635 94.3153 17.1387L96.0685 18.1013C96.9934 16.4165 97.4519 14.5698 97.4519 12.58H95.4519ZM94.3194 17.1314C93.586 18.4411 92.4475 19.5295 90.8505 20.3831L91.7933 22.1469C93.6764 21.1405 95.1179 19.7989 96.0644 18.1086L94.3194 17.1314ZM90.8505 20.3831C89.2933 21.2154 87.3064 21.66 84.8419 21.66V23.66C87.5374 23.66 89.8705 23.1746 91.7933 22.1469L90.8505 20.3831ZM84.8419 21.66H80.0719V23.66H84.8419V21.66ZM79.0719 22.66V34H81.0719V22.66H79.0719ZM80.0719 33H72.3769V35H80.0719V33ZM73.3769 34V2.41H71.3769V34H73.3769ZM72.3769 3.41H84.8419V1.41H72.3769V3.41ZM84.8419 3.41C87.2509 3.41 89.2184 3.82626 90.7847 4.60943L91.6791 2.82057C89.7655 1.86374 87.4729 1.41 84.8419 1.41V3.41ZM90.7847 4.60943C92.3669 5.40052 93.5158 6.4695 94.2776 7.8093L96.0162 6.8207C95.0381 5.1005 93.5769 3.76947 91.6791 2.82057L90.7847 4.60943ZM94.2776 7.8093C95.0517 9.17055 95.4519 10.7512 95.4519 12.58H97.4519C97.4519 10.4488 96.9822 8.51945 96.0162 6.8207L94.2776 7.8093ZM84.2569 17.54C85.8639 17.54 87.2556 17.1644 88.2338 16.227L86.85 14.783C86.3882 15.2256 85.5899 15.54 84.2569 15.54V17.54ZM88.2338 16.227C89.1995 15.3015 89.6219 14.0365 89.6219 12.58H87.6219C87.6219 13.6435 87.3243 14.3285 86.85 14.783L88.2338 16.227ZM89.6219 12.58C89.6219 11.1235 89.1995 9.85849 88.2338 8.93301L86.85 10.377C87.3243 10.8315 87.6219 11.5165 87.6219 12.58H89.6219ZM88.2338 8.93301C87.2556 7.99558 85.8639 7.62 84.2569 7.62V9.62C85.5899 9.62 86.3882 9.93442 86.85 10.377L88.2338 8.93301ZM84.2569 7.62H80.0719V9.62H84.2569V7.62ZM79.0719 8.62V16.54H81.0719V8.62H79.0719ZM80.0719 17.54H84.2569V15.54H80.0719V17.54ZM108.153 0.699999H109.153V-0.3H108.153V0.699999ZM108.153 34V35H109.153V34H108.153ZM100.458 34H99.458V35H100.458V34ZM100.458 0.699999V-0.3H99.458V0.699999H100.458ZM107.153 0.699999V34H109.153V0.699999H107.153ZM108.153 33H100.458V35H108.153V33ZM101.458 34V0.699999H99.458V34H101.458ZM100.458 1.7H108.153V-0.3H100.458V1.7ZM113.639 14.605L112.748 14.1523L112.742 14.1633L113.639 14.605ZM117.644 10.105L118.174 10.953L117.644 10.105ZM127.904 9.61L127.426 10.4879L127.434 10.4923L127.904 9.61ZM131.009 12.445L130.158 12.9691L132.009 15.978V12.445H131.009ZM131.009 8.89V7.89H130.009V8.89H131.009ZM138.704 8.89H139.704V7.89H138.704V8.89ZM138.704 34V35H139.704V34H138.704ZM131.009 34H130.009V35H131.009V34ZM131.009 30.445H132.009V27.032L130.168 29.9053L131.009 30.445ZM127.859 33.28L127.389 32.3976L127.381 32.4021L127.859 33.28ZM117.644 32.785L117.104 33.6262L117.114 33.633L117.644 32.785ZM113.639 28.24L112.74 28.6763L112.744 28.6845L112.748 28.6927L113.639 28.24ZM129.389 16.9L128.663 17.5873L128.673 17.5974L129.389 16.9ZM121.604 16.9L120.888 16.2026L120.887 16.2029L121.604 16.9ZM121.604 25.99L120.869 26.6675L120.878 26.6775L120.888 26.6874L121.604 25.99ZM129.389 25.99L128.673 25.2926L128.663 25.3028L129.389 25.99ZM113.199 21.4C113.199 18.9447 113.656 16.8359 114.537 15.0467L112.742 14.1633C111.703 16.2741 111.199 18.6953 111.199 21.4H113.199ZM114.531 15.0577C115.448 13.2525 116.664 11.8968 118.174 10.953L117.114 9.257C115.264 10.4132 113.811 12.0574 112.748 14.1523L114.531 15.0577ZM118.174 10.953C119.688 10.0069 121.378 9.53 123.269 9.53V7.53C121.021 7.53 118.961 8.10309 117.114 9.257L118.174 10.953ZM123.269 9.53C124.902 9.53 126.277 9.86113 127.426 10.4879L128.383 8.7321C126.892 7.91887 125.177 7.53 123.269 7.53V9.53ZM127.434 10.4923C128.646 11.1386 129.541 11.9669 130.158 12.9691L131.861 11.9209C131.038 10.5831 129.863 9.52141 128.375 8.72764L127.434 10.4923ZM132.009 12.445V8.89H130.009V12.445H132.009ZM131.009 9.89H138.704V7.89H131.009V9.89ZM137.704 8.89V34H139.704V8.89H137.704ZM138.704 33H131.009V35H138.704V33ZM132.009 34V30.445H130.009V34H132.009ZM130.168 29.9053C129.519 30.917 128.603 31.7499 127.389 32.3976L128.33 34.1624C129.815 33.3701 131 32.313 131.851 30.9847L130.168 29.9053ZM127.381 32.4021C126.232 33.0289 124.857 33.36 123.224 33.36V35.36C125.132 35.36 126.847 34.9711 128.338 34.1579L127.381 32.4021ZM123.224 33.36C121.366 33.36 119.691 32.8846 118.174 31.937L117.114 33.633C118.958 34.7854 121.003 35.36 123.224 35.36V33.36ZM118.185 31.9438C116.669 30.9688 115.449 29.5944 114.531 27.7873L112.748 28.6927C113.81 30.7856 115.26 32.4412 117.104 33.6262L118.185 31.9438ZM114.539 27.8037C113.656 25.9813 113.199 23.8548 113.199 21.4H111.199C111.199 24.1052 111.703 26.5387 112.74 28.6763L114.539 27.8037ZM132.009 21.445C132.009 19.3304 131.409 17.5417 130.106 16.2026L128.673 17.5974C129.53 18.4783 130.009 19.7196 130.009 21.445H132.009ZM130.116 16.2128C128.877 14.9028 127.324 14.235 125.519 14.235V16.235C126.775 16.235 127.802 16.6772 128.663 17.5872L130.116 16.2128ZM125.519 14.235C123.716 14.235 122.153 14.9018 120.888 16.2026L122.321 17.5974C123.216 16.6782 124.263 16.235 125.519 16.235V14.235ZM120.887 16.2029C119.61 17.5171 119.029 19.2944 119.029 21.4H121.029C121.029 19.6656 121.499 18.4429 122.321 17.5971L120.887 16.2029ZM119.029 21.4C119.029 23.5083 119.611 25.3014 120.869 26.6675L122.34 25.3125C121.498 24.3986 121.029 23.1317 121.029 21.4H119.029ZM120.888 26.6874C122.153 27.9882 123.716 28.655 125.519 28.655V26.655C124.263 26.655 123.216 26.2118 122.321 25.2926L120.888 26.6874ZM125.519 28.655C127.324 28.655 128.877 27.9872 130.116 26.6772L128.663 25.3028C127.802 26.2128 126.775 26.655 125.519 26.655V28.655ZM130.106 26.6874C131.409 25.3483 132.009 23.5596 132.009 21.445H130.009C130.009 23.1704 129.53 24.4117 128.673 25.2926L130.106 26.6874ZM169.921 8.89L170.842 9.28135L171.433 7.89H169.921V8.89ZM154.171 45.925V46.925H154.833L155.092 46.3164L154.171 45.925ZM145.891 45.925L144.98 45.5141L144.344 46.925H145.891V45.925ZM151.651 33.145L152.563 33.5559L152.742 33.1585L152.573 32.7569L151.651 33.145ZM141.436 8.89V7.89H139.93L140.515 9.27813L141.436 8.89ZM150.031 8.89L150.969 8.5433L150.728 7.89H150.031V8.89ZM155.836 24.595L154.898 24.9417L155.84 27.4892L156.775 24.9393L155.836 24.595ZM161.596 8.89V7.89H160.898L160.658 8.54567L161.596 8.89ZM169.001 8.49865L153.251 45.5336L155.092 46.3164L170.842 9.28135L169.001 8.49865ZM154.171 44.925H145.891V46.925H154.171V44.925ZM146.803 46.3359L152.563 33.5559L150.74 32.7341L144.98 45.5141L146.803 46.3359ZM152.573 32.7569L142.358 8.50187L140.515 9.27813L150.73 33.5331L152.573 32.7569ZM141.436 9.89H150.031V7.89H141.436V9.89ZM149.093 9.2367L154.898 24.9417L156.774 24.2483L150.969 8.5433L149.093 9.2367ZM156.775 24.9393L162.535 9.23433L160.658 8.54567L154.898 24.2507L156.775 24.9393ZM161.596 9.89H169.921V7.89H161.596V9.89Z" fill="white" fill-opacity="0.2"/>
</svg>
