<svg width="80" height="70" viewBox="0 0 80 70" fill="none" xmlns="http://www.w3.org/2000/svg">
<ellipse cx="40" cy="35" rx="40" ry="35" fill="#F1F1F1"/>
<path d="M63.3289 17.5238C63.2661 17.2648 63.1203 17.0274 62.9089 16.84C62.6975 16.6527 62.4295 16.5235 62.1372 16.4678C58.9918 15.8706 56.5312 15.8706 54.0793 15.8706C43.9985 15.8706 37.952 20.6485 33.44 26.9498H23.2615C22.3922 26.9505 21.5403 27.1652 20.8008 27.5701C20.0613 27.975 19.4634 28.5541 19.0738 29.2427L14.2464 37.7945C14.0681 38.1112 13.9841 38.4632 14.0025 38.8168C14.0208 39.1704 14.1408 39.514 14.3511 39.815C14.5614 40.116 14.855 40.3643 15.2041 40.5365C15.5531 40.7087 15.9461 40.799 16.3456 40.7988H26.4821L24.2872 42.7437C23.7011 43.2632 23.3719 43.9676 23.3719 44.7021C23.3719 45.4366 23.7011 46.141 24.2872 46.6604L29.2592 51.067C29.5495 51.3243 29.8941 51.5283 30.2734 51.6676C30.6527 51.8068 31.0592 51.8785 31.4698 51.8785C31.8803 51.8785 32.2868 51.8068 32.6661 51.6676C33.0454 51.5283 33.39 51.3243 33.6803 51.067L35.8752 49.1221V58.1101C35.8751 58.464 35.977 58.812 36.1713 59.1212C36.3655 59.4304 36.6457 59.6905 36.9853 59.8768C37.3248 60.0631 37.7124 60.1695 38.1114 60.1858C38.5103 60.2022 38.9073 60.1279 39.2648 59.9702L48.9061 55.6952C49.6844 55.3506 50.339 54.8206 50.7963 54.1647C51.2535 53.5088 51.4954 52.7529 51.4947 51.9819V42.9446C58.5854 38.937 63.998 33.5618 63.998 24.6734C64.0078 22.4922 64.0078 20.3109 63.3289 17.5238ZM51.5044 30.4121C50.7316 30.4121 49.9762 30.209 49.3337 29.8286C48.6911 29.4481 48.1903 28.9074 47.8946 28.2748C47.5988 27.6421 47.5214 26.946 47.6722 26.2744C47.823 25.6027 48.1951 24.9858 48.7416 24.5016C49.288 24.0174 49.9842 23.6877 50.7422 23.5541C51.5001 23.4205 52.2857 23.4891 52.9997 23.7511C53.7137 24.0132 54.3239 24.4569 54.7532 25.0263C55.1826 25.5957 55.4117 26.265 55.4117 26.9498C55.4117 27.8681 55.0001 28.7487 54.2673 29.398C53.5345 30.0473 52.5407 30.4121 51.5044 30.4121Z" fill="url(#paint0_linear_7_63)"/>
<defs>
<linearGradient id="paint0_linear_7_63" x1="14" y1="38.0293" x2="64" y2="38.0293" gradientUnits="userSpaceOnUse">
<stop stop-color="#00F5A0"/>
<stop offset="1" stop-color="#00D9F5"/>
</linearGradient>
</defs>
</svg>
