<svg width="70" height="70" viewBox="0 0 70 70" fill="none" xmlns="http://www.w3.org/2000/svg">
<circle cx="35" cy="35" r="35" fill="#FCBF49" fill-opacity="0.35"/>
<path d="M57.1948 28.3445L53.3061 23.7993C52.7905 23.1967 52.0909 22.8581 51.3613 22.8581H47V14.8214C47 12.1586 45.1532 10 42.875 10H29.125C26.8468 10 25 12.1586 25 14.8214V22.8571H20.6387C19.9091 22.8571 19.2104 23.1956 18.6939 23.7983L14.8052 28.3445C14.2896 28.9472 14 29.7648 14 30.6176V38.9286H25V37.3214C25 36.4335 25.6153 35.7143 26.375 35.7143H29.125C29.8847 35.7143 30.5 36.4335 30.5 37.3214V38.9286H41.5V37.3214C41.5 36.4335 42.1153 35.7143 42.875 35.7143H45.625C46.3847 35.7143 47 36.4335 47 37.3214V38.9286H58V30.6166C58 29.7648 57.7104 28.9472 57.1948 28.3445ZM41.5 22.8571H30.5V16.4286H41.5V22.8571ZM47 43.75C47 44.6379 46.3847 45.3571 45.625 45.3571H42.875C42.1153 45.3571 41.5 44.6379 41.5 43.75V42.1429H30.5V43.75C30.5 44.6379 29.8847 45.3571 29.125 45.3571H26.375C25.6153 45.3571 25 44.6379 25 43.75V42.1429H14V51.7857C14 53.5606 15.2315 55 16.75 55H55.25C56.7685 55 58 53.5606 58 51.7857V42.1429H47V43.75Z" fill="#FCBF49"/>
</svg>
