<svg width="80" height="70" viewBox="0 0 80 70" fill="none" xmlns="http://www.w3.org/2000/svg">
<ellipse cx="40" cy="35" rx="40" ry="35" fill="#F1F1F1"/>
<path d="M36.8595 13.7907C35.7548 13.6714 34.7267 14.4517 34.4443 15.6843L33.4319 20.102C46.2579 20.533 54.9344 30.356 55.4772 44.9892L59.3697 43.7504C60.4443 43.4081 61.1122 42.2053 60.9844 40.9319C59.557 26.7391 49.2952 15.1387 36.8595 13.7907ZM32.8624 22.5837L26.0365 52.3769C25.9869 52.5933 25.9879 52.821 26.0393 53.0369C26.0907 53.2527 26.1908 53.4492 26.3295 53.6065C26.4682 53.7637 26.6405 53.8762 26.8291 53.9326C27.0177 53.9889 27.2159 53.9872 27.4038 53.9275L53.3128 45.6762C53.0209 31.9458 44.8989 22.7407 32.8624 22.5868V22.5837ZM34.7492 46.4385C34.3166 46.4385 33.8936 46.2912 33.5339 46.0151C33.1741 45.7391 32.8937 45.3467 32.7282 44.8876C32.5626 44.4286 32.5193 43.9235 32.6037 43.4361C32.6881 42.9488 32.8964 42.5011 33.2024 42.1498C33.5083 41.7984 33.8981 41.5592 34.3224 41.4622C34.7468 41.3653 35.1866 41.4151 35.5864 41.6052C35.9861 41.7953 36.3278 42.1173 36.5681 42.5305C36.8085 42.9436 36.9368 43.4294 36.9368 43.9262C36.9368 44.5925 36.7063 45.2315 36.2961 45.7027C35.8858 46.1738 35.3294 46.4385 34.7492 46.4385ZM38.0306 34.5052C37.5979 34.5052 37.175 34.3579 36.8152 34.0818C36.4555 33.8058 36.1751 33.4134 36.0095 32.9543C35.844 32.4953 35.8006 31.9901 35.885 31.5028C35.9695 31.0155 36.1778 30.5678 36.4837 30.2165C36.7897 29.8651 37.1795 29.6259 37.6038 29.5289C38.0282 29.432 38.468 29.4817 38.8677 29.6719C39.2675 29.862 39.6091 30.184 39.8495 30.5972C40.0899 31.0103 40.2182 31.496 40.2182 31.9929C40.2182 32.6592 39.9877 33.2982 39.5774 33.7694C39.1672 34.2405 38.6108 34.5052 38.0306 34.5052ZM45.1402 42.6701C44.7075 42.6701 44.2846 42.5228 43.9248 42.2467C43.5651 41.9707 43.2847 41.5783 43.1191 41.1192C42.9536 40.6602 42.9103 40.155 42.9947 39.6677C43.0791 39.1804 43.2874 38.7327 43.5934 38.3814C43.8993 38.03 44.2891 37.7908 44.7134 37.6938C45.1378 37.5969 45.5776 37.6466 45.9774 37.8368C46.3771 38.0269 46.7187 38.3489 46.9591 38.7621C47.1995 39.1752 47.3278 39.6609 47.3278 40.1578C47.3278 40.8241 47.0973 41.4631 46.687 41.9343C46.2768 42.4054 45.7204 42.6701 45.1402 42.6701Z" fill="url(#paint0_linear_8_69)"/>
<defs>
<linearGradient id="paint0_linear_8_69" x1="26" y1="33.8761" x2="61" y2="33.8761" gradientUnits="userSpaceOnUse">
<stop stop-color="#E65C00"/>
<stop offset="1" stop-color="#F9D423"/>
</linearGradient>
</defs>
</svg>
