<svg width="70" height="70" viewBox="0 0 70 70" fill="none" xmlns="http://www.w3.org/2000/svg">
<circle cx="35" cy="35" r="35" fill="#52B788" fill-opacity="0.35"/>
<path d="M53.9688 47.6667H26.125V22.3333C26.125 21.5967 25.6635 21 25.0938 21H23.0312C22.4615 21 22 21.5967 22 22.3333V50.3333C22 51.8058 22.9236 53 24.0625 53H53.9688C54.5385 53 55 52.4033 55 51.6667V49C55 48.2633 54.5385 47.6667 53.9688 47.6667ZM51.9062 23.6667H44.2969C42.9189 23.6667 42.2286 25.8208 43.2031 27.0808L45.2914 29.7808L40.5625 35.8958L35.8336 29.7817C35.0279 28.74 33.7221 28.74 32.9171 29.7817L28.4898 35.5058C28.087 36.0267 28.087 36.8708 28.4898 37.3917L29.9477 39.2767C30.3505 39.7975 31.0035 39.7975 31.4063 39.2767L34.375 35.4375L39.1039 41.5517C39.9096 42.5933 41.2154 42.5933 42.0204 41.5517L48.2079 33.5517L50.2962 36.2517C51.2707 37.5117 52.9369 36.6192 52.9369 34.8375V25C52.9375 24.2633 52.476 23.6667 51.9062 23.6667Z" fill="#52B788"/>
</svg>
