<svg width="38" height="42" viewBox="0 0 38 42" fill="none" xmlns="http://www.w3.org/2000/svg">
<path d="M25.75 31.7172H37L33.8387 28.6602C33.4142 28.2496 33.0775 27.7621 32.8478 27.2257C32.6181 26.6892 32.4999 26.1142 32.5 25.5336V18.6624C32.5003 15.9621 31.6351 13.3281 30.0233 11.1231C28.4115 8.91802 26.1325 7.25033 23.5 6.34963V5.60769C23.5 4.45358 23.0259 3.34673 22.182 2.53065C21.3381 1.71457 20.1935 1.2561 19 1.2561C17.8065 1.2561 16.6619 1.71457 15.818 2.53065C14.9741 3.34673 14.5 4.45358 14.5 5.60769V6.34963C9.2575 8.14249 5.5 12.9793 5.5 18.6624V25.5358C5.5 26.7063 5.0185 27.8312 4.16125 28.6602L1 31.7172H12.25M25.75 31.7172V33.893C25.75 35.6242 25.0388 37.2844 23.773 38.5085C22.5071 39.7327 20.7902 40.4204 19 40.4204C17.2098 40.4204 15.4929 39.7327 14.227 38.5085C12.9612 37.2844 12.25 35.6242 12.25 33.893V31.7172M25.75 31.7172H12.25" stroke="black" stroke-width="2" stroke-linecap="round" stroke-linejoin="round"/>
</svg>
